<svg width="21.063" height="23.186" viewBox="0 0 21.063 23.186" xmlns="http://www.w3.org/2000/svg" xmlns:xlink="http://www.w3.org/1999/xlink" overflow="hidden"><g id="Group_241" transform="translate(-174.17 -391.389)"><g id="Group_238"><path d="M175.6 411.046 175.3 411.046 175.249 410.778C175.203 410.752 175.152 410.733 175.1 410.723 175.032 410.706 174.963 410.697 174.893 410.698 174.805 410.693 174.718 410.717 174.645 410.766 174.589 410.806 174.557 410.871 174.558 410.94 174.558 411.006 174.592 411.068 174.649 411.103 174.748 411.162 174.854 411.207 174.965 411.237 175.144 411.279 175.311 411.36 175.454 411.474 175.565 411.571 175.626 411.713 175.621 411.86 175.627 412.019 175.552 412.17 175.421 412.26 175.267 412.362 175.084 412.413 174.899 412.404 174.756 412.406 174.614 412.381 174.481 412.33 174.364 412.287 174.258 412.219 174.17 412.13L174.17 411.724 174.47 411.724 174.511 412C174.559 412.037 174.613 412.064 174.671 412.08 174.744 412.102 174.82 412.112 174.896 412.111 174.982 412.117 175.068 412.094 175.14 412.046 175.195 412.005 175.226 411.939 175.224 411.871 175.226 411.802 175.197 411.736 175.144 411.691 175.061 411.63 174.966 411.587 174.866 411.562 174.678 411.515 174.5 411.434 174.341 411.323 174.223 411.235 174.157 411.094 174.163 410.947 174.161 410.793 174.236 410.647 174.363 410.56 174.509 410.456 174.684 410.402 174.863 410.405 175.002 410.403 175.141 410.427 175.272 410.474 175.386 410.514 175.492 410.575 175.583 410.655Z" id="Path_5018" fill="#FFFFFF"/><path d="M177.666 411.412C177.676 411.67 177.588 411.922 177.421 412.119 177.261 412.304 177.026 412.407 176.781 412.399 176.537 412.408 176.303 412.305 176.144 412.119 175.977 411.922 175.891 411.67 175.901 411.412L175.901 411.383C175.892 411.126 175.978 410.874 176.143 410.677 176.301 410.491 176.535 410.388 176.779 410.396 177.024 410.387 177.26 410.491 177.42 410.677 177.587 410.873 177.675 411.125 177.666 411.383ZM177.277 411.38C177.285 411.208 177.241 411.037 177.151 410.89 177.07 410.765 176.928 410.693 176.779 410.701 176.632 410.693 176.492 410.764 176.412 410.888 176.325 411.037 176.283 411.208 176.291 411.38L176.291 411.412C176.282 411.587 176.325 411.761 176.414 411.912 176.493 412.037 176.633 412.109 176.781 412.101 176.93 412.109 177.071 412.037 177.152 411.912 177.243 411.762 177.286 411.587 177.277 411.412Z" id="Path_5019" fill="#FFFFFF"/><path d="M179.527 411.08 179.237 411.08 179.197 410.821C179.155 410.781 179.106 410.75 179.052 410.73 178.986 410.707 178.915 410.696 178.845 410.697 178.692 410.689 178.545 410.758 178.454 410.881 178.357 411.022 178.309 411.191 178.317 411.362L178.317 411.431C178.309 411.602 178.357 411.772 178.453 411.914 178.542 412.036 178.687 412.106 178.838 412.1 178.91 412.1 178.981 412.089 179.049 412.066 179.105 412.049 179.156 412.018 179.197 411.976L179.237 411.716 179.527 411.716 179.527 412.101C179.445 412.195 179.342 412.269 179.227 412.318 179.098 412.373 178.958 412.401 178.818 412.399 178.575 412.407 178.34 412.308 178.176 412.128 178.005 411.936 177.916 411.685 177.926 411.428L177.926 411.362C177.915 411.105 178.005 410.854 178.175 410.662 178.338 410.48 178.574 410.381 178.818 410.389 178.958 410.387 179.097 410.415 179.226 410.471 179.34 410.521 179.443 410.595 179.526 410.688Z" id="Path_5020" fill="#FFFFFF"/><path d="M179.814 410.659 179.814 410.424 180.621 410.424 180.621 410.659 180.412 410.699 180.412 412.099 180.621 412.139 180.621 412.373 179.814 412.373 179.814 412.139 180.023 412.099 180.023 410.699Z" id="Path_5021" fill="#FFFFFF"/><path d="M180.859 412.137 180.998 412.117 181.59 410.424 181.99 410.424 182.579 412.117 182.718 412.137 182.718 412.371 182.054 412.371 182.054 412.137 182.189 412.113 182.104 411.846 181.473 411.846 181.387 412.113 181.522 412.137 181.522 412.371 180.859 412.371ZM181.565 411.558 182.012 411.558 181.792 410.872 181.784 410.872Z" id="Path_5022" fill="#FFFFFF"/><path d="M182.956 412.371 182.956 412.137 183.163 412.097 183.163 410.697 182.956 410.657 182.956 410.422 183.762 410.422 183.762 410.657 183.553 410.697 183.553 412.069 184.103 412.069 184.122 411.825 184.422 411.825 184.422 412.369Z" id="Path_5023" fill="#FFFFFF"/><path d="M187.064 412.154C186.984 412.228 186.89 412.285 186.788 412.323 186.641 412.378 186.485 412.404 186.328 412.399 186.086 412.407 185.852 412.311 185.686 412.135 185.516 411.947 185.427 411.701 185.438 411.448L185.438 411.382C185.427 411.122 185.514 410.868 185.683 410.67 185.844 410.488 186.077 410.387 186.32 410.396 186.463 410.394 186.604 410.419 186.738 410.469 186.856 410.513 186.963 410.581 187.053 410.669L187.053 411.061 186.764 411.061 186.709 410.8C186.667 410.767 186.619 410.742 186.568 410.728 186.503 410.708 186.436 410.699 186.368 410.7 186.211 410.692 186.061 410.763 185.968 410.889 185.868 411.033 185.819 411.207 185.827 411.382L185.827 411.451C185.818 411.62 185.867 411.788 185.966 411.925 186.063 412.045 186.212 412.111 186.366 412.103 186.43 412.105 186.495 412.098 186.557 412.082 186.597 412.073 186.636 412.057 186.671 412.035L186.671 411.705 186.392 411.684 186.392 411.41 187.062 411.41Z" id="Path_5024" fill="#FFFFFF"/><path d="M188.244 410.424C188.43 410.413 188.613 410.467 188.764 410.576 188.89 410.677 188.961 410.833 188.953 410.995 188.955 411.086 188.927 411.176 188.874 411.25 188.814 411.328 188.734 411.389 188.643 411.426 188.744 411.45 188.832 411.51 188.891 411.595 188.944 411.684 188.97 411.786 188.966 411.889L188.966 411.989C188.964 412.024 188.973 412.059 188.992 412.089 189.013 412.114 189.043 412.13 189.076 412.131L189.124 412.138 189.124 412.373 188.924 412.373C188.823 412.385 188.723 412.348 188.655 412.273 188.601 412.195 188.574 412.102 188.578 412.007L188.578 411.896C188.582 411.815 188.555 411.735 188.502 411.673 188.446 411.617 188.369 411.586 188.289 411.588L187.969 411.588 187.969 412.102 188.178 412.142 188.178 412.376 187.372 412.376 187.372 412.142 187.579 412.102 187.579 410.702 187.372 410.662 187.372 410.427 188.246 410.427ZM187.967 411.282 188.237 411.282C188.324 411.289 188.411 411.265 188.482 411.213 188.538 411.162 188.568 411.089 188.563 411.013 188.567 410.935 188.538 410.859 188.483 410.803 188.417 410.747 188.331 410.719 188.244 410.725L187.967 410.725Z" id="Path_5025" fill="#FFFFFF"/><path d="M191.142 411.412C191.152 411.67 191.064 411.922 190.897 412.119 190.737 412.305 190.501 412.408 190.256 412.399 190.012 412.408 189.777 412.305 189.619 412.119 189.453 411.922 189.366 411.67 189.376 411.412L189.376 411.383C189.367 411.126 189.453 410.874 189.619 410.677 189.777 410.491 190.011 410.388 190.255 410.396 190.5 410.387 190.736 410.491 190.896 410.677 191.063 410.873 191.151 411.125 191.142 411.383ZM190.752 411.38C190.76 411.208 190.716 411.037 190.627 410.89 190.546 410.765 190.404 410.693 190.255 410.701 190.108 410.693 189.968 410.764 189.888 410.888 189.801 411.037 189.759 411.208 189.767 411.38L189.767 411.412C189.758 411.587 189.801 411.761 189.889 411.912 189.968 412.037 190.109 412.109 190.256 412.101 190.405 412.109 190.547 412.037 190.628 411.912 190.718 411.761 190.761 411.587 190.752 411.412Z" id="Path_5026" fill="#FFFFFF"/><path d="M192.191 410.424 192.191 410.659 191.983 410.699 191.983 411.716C191.974 411.822 192.01 411.927 192.083 412.004 192.162 412.073 192.264 412.108 192.368 412.104 192.473 412.108 192.576 412.073 192.655 412.004 192.728 411.926 192.764 411.821 192.755 411.715L192.755 410.7 192.548 410.66 192.548 410.425 193.354 410.425 193.354 410.66 193.146 410.7 193.146 411.717C193.157 411.91 193.077 412.097 192.93 412.222 192.591 412.459 192.139 412.459 191.8 412.222 191.653 412.096 191.574 411.91 191.585 411.717L191.585 410.7 191.378 410.66 191.378 410.425 192.184 410.425Z" id="Path_5027" fill="#FFFFFF"/><path d="M194.513 410.424C194.704 410.413 194.892 410.475 195.04 410.596 195.289 410.832 195.299 411.224 195.063 411.473 195.056 411.481 195.048 411.488 195.04 411.496 194.891 411.616 194.704 411.677 194.513 411.666L194.184 411.666 194.184 412.098 194.392 412.138 194.392 412.372 193.586 412.372 193.586 412.138 193.793 412.098 193.793 410.698 193.586 410.658 193.586 410.423 194.513 410.423ZM194.184 411.364 194.513 411.364C194.604 411.371 194.693 411.338 194.759 411.275 194.816 411.214 194.846 411.133 194.843 411.049 194.846 410.963 194.816 410.88 194.759 410.816 194.694 410.752 194.604 410.719 194.513 410.725L194.184 410.725Z" id="Path_5028" fill="#FFFFFF"/></g><g id="Group_239"><path d="M180.275 414.073 180.536 413.585 180.659 413.585 180.332 414.185 180.332 414.565 180.217 414.565 180.217 414.191 179.892 413.591 180.016 413.591Z" id="Path_5029" fill="#FFFFFF"/><path d="M181.642 414.072C181.65 414.206 181.607 414.337 181.523 414.441 181.439 414.533 181.318 414.582 181.193 414.575 181.068 414.583 180.946 414.534 180.86 414.443 180.775 414.338 180.733 414.205 180.742 414.07 180.733 413.937 180.776 413.805 180.86 413.701 180.946 413.61 181.069 413.561 181.194 413.569 181.318 413.563 181.439 413.612 181.523 413.703 181.607 413.807 181.65 413.939 181.642 414.072ZM180.863 414.072C180.856 414.179 180.885 414.285 180.947 414.372 181.081 414.508 181.299 414.509 181.435 414.375 181.436 414.374 181.437 414.373 181.438 414.372 181.548 414.187 181.548 413.957 181.438 413.772 181.376 413.703 181.286 413.666 181.194 413.672 181.101 413.665 181.009 413.702 180.947 413.772 180.885 413.859 180.856 413.965 180.863 414.072Z" id="Path_5030" fill="#FFFFFF"/><path d="M182.6 413.585 182.6 414.217C182.605 414.315 182.569 414.41 182.5 414.48 182.424 414.549 182.324 414.585 182.222 414.58 182.121 414.586 182.022 414.549 181.949 414.48 181.881 414.409 181.845 414.314 181.849 414.216L181.849 413.586 181.962 413.586 181.962 414.224C181.957 414.293 181.981 414.361 182.029 414.411 182.084 414.459 182.156 414.483 182.229 414.477 182.299 414.482 182.367 414.458 182.419 414.411 182.467 414.36 182.491 414.292 182.486 414.222L182.486 413.586Z" id="Path_5031" fill="#FFFFFF"/><path d="M182.97 414.155 182.97 414.563 182.856 414.563 182.856 413.585 183.124 413.585C183.218 413.577 183.312 413.601 183.391 413.653 183.45 413.705 183.482 413.781 183.476 413.86 183.481 413.984 183.397 414.094 183.276 414.123L183.541 414.563 183.407 414.563 183.17 414.155ZM182.97 414.055 183.126 414.055C183.189 414.06 183.251 414.043 183.303 414.008 183.342 413.971 183.362 413.918 183.358 413.864 183.364 413.811 183.342 413.759 183.301 413.725 183.246 413.691 183.182 413.676 183.118 413.682L182.97 413.682Z" id="Path_5032" fill="#FFFFFF"/><path d="M184.359 414.563 184.246 414.563 184.246 413.685 183.936 413.685 183.936 413.585 184.669 413.585 184.669 413.685 184.359 413.685Z" id="Path_5033" fill="#FFFFFF"/><path d="M185.431 414.563 185.309 414.251 184.917 414.251 184.797 414.563 184.682 414.563 185.068 413.581 185.168 413.581 185.552 414.563ZM185.273 414.149 185.16 413.849C185.145 413.811 185.13 413.764 185.114 413.708 185.103 413.756 185.089 413.803 185.072 413.849L184.957 414.149Z" id="Path_5034" fill="#FFFFFF"/><path d="M186.113 414.05 186.445 414.05 186.445 414.525C186.394 414.542 186.341 414.555 186.287 414.563 186.225 414.572 186.163 414.576 186.101 414.575 185.972 414.582 185.846 414.534 185.755 414.443 185.668 414.34 185.624 414.208 185.632 414.073 185.63 413.981 185.651 413.889 185.693 413.807 185.732 413.732 185.794 413.67 185.869 413.631 185.953 413.589 186.045 413.568 186.139 413.57 186.239 413.57 186.338 413.589 186.43 413.628L186.386 413.728C186.306 413.692 186.219 413.673 186.131 413.672 186.027 413.666 185.926 413.705 185.852 413.778 185.782 413.86 185.746 413.965 185.752 414.073 185.745 414.182 185.781 414.29 185.852 414.373 185.929 414.444 186.032 414.481 186.136 414.473 186.203 414.473 186.271 414.465 186.336 414.449L186.336 414.149 186.118 414.149Z" id="Path_5035" fill="#FFFFFF"/><path d="M186.68 414.563 186.68 413.585 186.793 413.585 186.793 414.459 187.225 414.459 187.225 414.559Z" id="Path_5036" fill="#FFFFFF"/><path d="M187.391 414.563 187.391 413.585 187.504 413.585 187.504 414.563Z" id="Path_5037" fill="#FFFFFF"/><path d="M188.536 414.563 188.406 414.563 187.872 413.742 187.872 413.742C187.878 413.842 187.882 413.927 187.882 414.007L187.882 414.563 187.782 414.563 187.782 413.585 187.91 413.585 188.444 414.401 188.444 414.401C188.444 414.39 188.444 414.351 188.438 414.286 188.432 414.221 188.438 414.174 188.438 414.146L188.438 413.585 188.544 413.585Z" id="Path_5038" fill="#FFFFFF"/><path d="M189.35 414.563 188.8 414.563 188.8 413.585 189.345 413.585 189.345 413.685 188.913 413.685 188.913 414 189.313 414 189.313 414.1 188.913 414.1 188.913 414.46 189.345 414.46Z" id="Path_5039" fill="#FFFFFF"/></g><g id="Group_240"><path d="M190.884 407.706 186.221 407.706C186.017 407.705 185.852 407.54 185.852 407.336L185.852 397.083C185.852 396.42 185.315 395.883 184.652 395.883L184.514 395.883C183.851 395.883 183.314 396.42 183.314 397.083L183.314 407.336C183.314 407.54 183.149 407.705 182.945 407.706L178.282 407.706C178.078 407.706 177.912 407.54 177.912 407.336L177.912 405.5 175.146 405.5C174.942 405.5 174.776 405.335 174.776 405.13 174.776 404.926 174.942 404.761 175.146 404.761L177.912 404.761 177.912 397.811C177.888 396.741 178.735 395.854 179.805 395.829 180.876 395.805 181.763 396.653 181.787 397.723 181.788 397.752 181.788 397.782 181.787 397.811L181.787 405.13C181.787 405.334 181.621 405.5 181.417 405.5L178.652 405.5 178.652 406.968 182.575 406.968 182.575 397.084C182.577 396.015 183.444 395.148 184.513 395.147L184.651 395.147C185.72 395.148 186.587 396.015 186.589 397.084L186.589 406.968 190.512 406.968 190.512 405.5 187.746 405.5C187.542 405.5 187.376 405.334 187.376 405.13L187.376 397.81C187.376 396.74 188.244 395.872 189.314 395.872 190.384 395.872 191.252 396.74 191.252 397.81L191.252 404.76 194.017 404.76C194.221 404.76 194.387 404.925 194.387 405.13 194.387 405.334 194.221 405.499 194.017 405.499L191.252 405.499 191.252 407.336C191.252 407.54 191.088 407.705 190.884 407.706ZM188.118 404.76 190.518 404.76 190.518 397.81C190.518 397.147 189.981 396.61 189.318 396.61 188.655 396.61 188.118 397.147 188.118 397.81ZM178.654 404.76 181.054 404.76 181.054 397.81C181.054 397.147 180.517 396.61 179.854 396.61 179.191 396.61 178.654 397.147 178.654 397.81Z" id="Path_5040" fill="#A1A1A1"/></g><path d="M181.338 393.631C181.337 394.444 180.678 395.103 179.865 395.102 179.052 395.101 178.393 394.442 178.394 393.629 178.395 392.816 179.053 392.158 179.866 392.158 180.679 392.159 181.338 392.818 181.338 393.631Z" id="Path_5041" fill="#FFFFFF"/><path d="M190.773 393.631C190.772 394.443 190.112 395.101 189.3 395.1 188.488 395.099 187.83 394.439 187.831 393.627 187.832 392.815 188.49 392.158 189.302 392.158 190.115 392.159 190.774 392.818 190.773 393.631Z" id="Path_5042" fill="#FFFFFF"/><path d="M186.056 392.86C186.057 393.673 185.398 394.332 184.585 394.333 183.772 394.334 183.113 393.675 183.112 392.862 183.111 392.049 183.77 391.39 184.583 391.389 184.583 391.389 184.584 391.389 184.584 391.389 185.396 391.388 186.055 392.047 186.056 392.859 186.056 392.859 186.056 392.86 186.056 392.86Z" id="Path_5043" fill="#FFFFFF"/></g></svg>